<svg width="78" height="78" viewBox="1 0 76 76" fill="none" xmlns="http://www.w3.org/2000/svg">
    <path d="M36.5485 1.37906C38.0707 0.522781 39.9293 0.522782 41.4515 1.37906L70.2265 17.5663C71.8008 18.4519 72.775 20.1178 72.775 21.9241V54.0759C72.775 55.8822 71.8008 57.5481 70.2265 58.4337L41.4515 74.6209C39.9293 75.4772 38.0707 75.4772 36.5485 74.6209L7.77355 58.4337C6.19925 57.5481 5.22501 55.8822 5.22501 54.0759V21.9241C5.22501 20.1178 6.19925 18.4519 7.77355 17.5663L36.5485 1.37906Z" fill="black"/>
    <path d="M36.2802 5.70506C37.9386 4.76705 40.053 4.76291 41.6699 5.70506L66.4294 19.6468C67.9779 20.5165 69.0144 22.2414 68.9999 24.0242V51.9782C69.0102 53.8355 67.8722 55.5977 66.2387 56.4508L41.6119 70.3284C40.7696 70.7933 39.818 71.0245 38.856 70.9979C37.894 70.9714 36.9566 70.688 36.1413 70.1772L28.7512 65.9116C28.2475 65.6114 27.6816 65.3733 27.325 64.8867C27.6401 64.4642 28.1998 64.4104 28.6559 64.224C29.6841 63.8969 30.6252 63.3958 31.5705 62.8657C31.8089 62.7 32.1011 62.7622 32.3292 62.9112L38.631 66.5515C39.0808 66.8103 39.5369 66.4686 39.9224 66.2512L64.1035 52.6201C64.402 52.4751 64.5679 52.1604 64.543 51.8332V24.1485C64.5762 23.7757 64.3626 23.4361 64.0247 23.285L39.4602 9.46745C39.3186 9.36965 39.1506 9.31709 38.9785 9.31672C38.8064 9.31635 38.6382 9.36819 38.4962 9.46538L13.9669 23.3119C13.6352 23.4631 13.4072 23.7985 13.4486 24.1712V51.856C13.4196 52.1831 13.5938 52.4917 13.8943 52.6325L20.449 56.3286C21.6804 56.9912 23.1916 57.3639 24.5473 56.8773C25.1405 56.654 25.6513 56.2548 26.011 55.7334C26.3708 55.2119 26.5624 54.5931 26.5601 53.9598L26.5663 26.4407C26.5373 26.0328 26.9229 25.6952 27.3188 25.7366H30.4697C30.8843 25.7263 31.2098 26.1653 31.1538 26.5753L31.1476 54.2683C31.1497 56.7282 30.1381 59.4035 27.8599 60.6107C25.0531 62.0602 21.5829 61.7558 18.8093 60.3623L11.7613 56.4694C10.1029 55.6412 8.98971 53.8521 9.00007 51.9968V24.0428C9.00697 23.1343 9.25702 22.2441 9.7243 21.4646C10.1916 20.6851 10.8591 20.0446 11.6576 19.6096L36.2802 5.70506ZM43.4195 25.0823C46.9995 24.8753 50.8324 24.9457 54.0538 26.7078C56.5476 28.0579 57.9302 30.8905 57.9758 33.6611C57.9054 34.0338 57.5156 34.2409 57.1591 34.2139C56.1226 34.2119 55.082 34.2284 54.0414 34.2077C53.5998 34.2243 53.3448 33.8184 53.2889 33.4292C52.9904 32.1039 52.2669 30.7932 51.019 30.1534C49.1036 29.1947 46.8814 29.2423 44.7918 29.263C43.2661 29.3458 41.6264 29.4763 40.3349 30.3708C39.3399 31.05 39.0414 32.4415 39.3959 33.5223C39.7276 34.3154 40.6459 34.5701 41.3942 34.8061C45.7101 35.9326 50.281 35.8415 54.5161 37.3054C56.2677 37.9101 57.9821 39.0862 58.5832 40.9187C59.3668 43.3745 59.0248 46.3107 57.2773 48.282C55.8594 49.9054 53.7947 50.7668 51.7321 51.2679C48.9896 51.8788 46.1455 51.8933 43.3615 51.6199C40.7433 51.3217 38.0195 50.6343 35.9983 48.8535C34.2695 47.3544 33.4278 45.0187 33.5108 42.7658C33.5315 42.3848 33.9108 42.1197 34.2778 42.1508H37.3872C37.8059 42.1218 38.1127 42.4821 38.1335 42.8755C38.3263 44.1179 38.801 45.4638 39.9038 46.1886C42.0306 47.5594 44.6985 47.4641 47.1322 47.5035C49.1492 47.4144 51.4128 47.3875 53.0609 46.054C53.9315 45.2941 54.1865 44.0247 53.9522 42.9314C53.6973 42.0079 52.7084 41.5793 51.8793 41.2749C47.6193 39.929 42.9966 40.4176 38.7782 38.8936C37.0659 38.289 35.4096 37.146 34.7525 35.388C33.8341 32.9032 34.255 29.8241 36.189 27.9191C38.0547 26.0245 40.791 25.2935 43.3822 25.0326L43.4195 25.0823Z" fill="#8CC84B"/>
</svg>
