<?xml version="1.0" encoding="utf-8"?>
<!-- Generator: Adobe Illustrator 19.0.0, SVG Export Plug-In . SVG Version: 6.00 Build 0)  -->
<svg version="1.1" id="layer" xmlns="http://www.w3.org/2000/svg" xmlns:xlink="http://www.w3.org/1999/xlink" x="0px" y="0px"
	 viewBox="-153 -46 652 652" style="enable-background:new -153 -46 652 652;" xml:space="preserve">
<style type="text/css">
	.st0{fill:#007BC1;}
	.st1{fill:#737F85;}
	.st2{fill-rule:evenodd;clip-rule:evenodd;fill:#737F85;}
</style>
<path class="st0" d="M-130.6,258c0,22.7,20,32.5,38.1,32.5h42.6c22.8,0,40.7-21.2,40.7-42.2c0-22.9-18.1-40.9-40.8-41.5h-41.3
	c-11.1-1.8-10.4-17.8,0-19.3h77.6c0-17.8-13.4-31.8-32.1-31.8h-45.5c-23.4,0-39.5,20.2-39.5,41.8c0,22.4,17.5,41.3,39.5,41.3h41.4
	c10.5,2.1,11.8,17,0,19.3H-130.6z"/>
<rect x="2.7" y="155.6" class="st0" width="31.9" height="134.9"/>
<path class="st0" d="M179.4,256.4c-11.7,22.2-34.9,37.3-61.5,37.3c-38.4,0-69.6-31.5-69.6-70.3s31.2-70.3,69.6-70.3
	c26.4,0,49.3,14.8,61.1,36.6l-28.5,15.4c-6.4-11.8-18.7-19.6-32.6-19.6c-20.2,0-37.2,16.7-37.2,37.9c0,21.2,16.9,37.9,37.2,37.9
	c14.2,0,26.8-8.2,33.1-20.3L179.4,256.4z"/>
<polygon class="st0" points="191.5,155.6 191.5,290.5 223.7,290.5 223.7,238.2 235,238.2 268.9,290.5 308.5,290.5 263.5,223.9 
	309.2,155.6 269.6,155.6 236.1,209.7 223.7,209.7 223.7,155.6 "/>
<path class="st1" d="M-131.5,374.4c0.4,1.5,0.8,2.6,1.5,4c1,1.6,2.2,3,3.7,4.2c2.6,2.1,6.8,4.4,14.6,4.4c9.3,0,14.6-3.9,16.8-7
	c0.9-1.2,2.5-4.1,2.5-8.3c0-4.1-1.7-8.1-5-10.7c-2.1-1.6-4.7-2.4-7.3-3.1c-1.8-0.6-3.6-1-5.4-1.5c-4.1-1-5.8-1.1-7.6-2.5
	c-1.9-1.4-2.3-3.3-2.4-4.1c0-0.6,0.1-1.8,1-3c0.4-0.6,1-1.1,1.6-1.5c2.1-1.3,5.4-1.4,5.9-1.4c3.2,0,6.3,0.9,8,3.8
	c0.1,0.2,0.6,0.9,0.8,1.7c1.2-0.3,2.6-0.5,3.7-0.9c1.5-0.4,3-0.8,4.4-1.3c-0.1-0.3-0.5-1.7-1.2-2.8c-1-1.7-2.5-3-3-3.4
	c-4.9-4.2-10.8-4.3-13-4.3c-8.8,0-13.4,4.1-15.3,7.1c-1.9,3.1-2.1,6.5-2.1,7.8c0,1.7,0.2,5.2,3.3,8.6c2.3,2.5,4.5,3.2,5.7,3.7
	c0.8,0.2,1.5,0.4,2.4,0.7c1.5,0.5,3.1,0.9,4.7,1.3c2.6,0.6,6.8,1.3,9,2.8c2.1,1.3,2.4,3.6,2.4,4.4c0,0.8-0.1,2.1-1.3,3.6
	c-0.6,0.7-1.3,1.3-2.1,1.7c-2.3,1.3-5.9,1.3-6.5,1.3c-6.1,0-9-2-10.5-4.4c-0.6-0.8-0.8-1.5-1.1-2.4L-131.5,374.4z"/>
<path class="st2" d="M-55.4,369.2c0-2.8-0.1-5.7-0.8-8.3c-0.3-0.9-0.8-2.8-2.3-4.9c-4.1-5.9-10.1-6.6-12.7-6.6
	c-7.4,0-13.1,4.5-15.3,11.4c-1,3.2-1,6.3-1,7.4c0,10,4,14.2,7.8,16.4c3.5,2,6.8,2.2,8.3,2.2c5.3,0,10.3-2.3,13.3-6.5
	c1.2-1.7,2.1-4.1,2.3-4.6l-7.4-1.2c-0.3,0.8-0.6,1.5-1,2.3c-1.5,2.2-4.1,3.6-6.7,3.6c-1,0-2.8-0.1-4.6-1.8c-3-2.6-3.2-6.1-3.3-7.4
	c-0.1-0.7-0.1-1.4-0.1-2L-55.4,369.2z M-79.2,364c0.2-1.9,0.3-2.4,0.8-3.4c1.1-3,3.2-4.3,4.3-4.8c0.4-0.2,1.5-0.7,2.8-0.7
	c0.8,0,2.4,0.1,4.2,1.5c2.6,1.9,3.1,4.3,3.6,7.4H-79.2z"/>
<path class="st2" d="M-48.3,350.2v35.7l8.1,0.3v-19c0.2-3.7,0.5-7.1,3.6-9.5c1.7-1.4,3.3-1.6,4.1-1.6c1.9,0,3,0.8,3.6,1.3
	c2.1,1.9,2.1,4.4,2.2,7.2v21.7h7.7v-24.4c-0.1-0.4-0.1-2.4-0.5-4c-0.4-1.7-1-2.9-1.3-3.4c-0.7-1.2-1.6-2.3-2.6-3
	c-1-0.7-3.1-1.9-6.4-2c-5.7,0-8.3,3.5-9.4,5.3c-0.6,1-1.3,2.3-1.7,3.2v-7.7H-48.3z"/>
<path class="st1" d="M5.7,372.6c1.7,0.3,3.2,0.8,4,2.1c0.3,0.7,0.4,1.3,0.4,1.7c0,2-1.7,3.1-2.2,3.4c-0.7,0.4-2.6,1-5,1
	c-0.6,0-4.1-0.1-6.2-1.9c-0.6-0.6-1-1-1.8-2.6l-7.5,1.6c1.4,2.8,2.1,4,3.1,5c2.8,2.8,8.1,3.9,12,3.9c1.3,0,7.5-0.1,11.6-3.2
	c3.8-2.8,4.3-6.8,4.3-8.6c0-3.5-1.7-7-4.8-8.8c-1-0.6-1.8-0.9-4-1.6l-8.1-1.5c-1.9-0.5-3.7-0.8-4.6-2.6c-0.3-0.6-0.4-1.2-0.4-1.4
	c0-0.8,0.3-1.4,0.4-1.7c1-1.8,3.5-2.1,4.1-2.1c0.8-0.1,1.6-0.1,1.9-0.1c4.3,0,5.7,2.4,6.7,3.9l7.1-1.5c-1.2-2.6-1.7-3.4-2.7-4.4
	c-2.6-2.8-7.3-4-11-4c-3.6,0-7.7,0.9-10.4,3.2c-2.3,2-3.7,5.4-3.7,8.6c0,4.9,3,7.3,4.6,8.2c1.4,0.9,2.7,1.2,4.2,1.7L5.7,372.6z"/>
<path class="st2" d="M22.4,367.2c-0.6,9.7,4.4,15.3,7.8,17.4c3.4,2.1,7.1,2.3,8.5,2.3c2.6,0,8.6-0.5,12.9-6.1
	c2.8-3.7,3.9-8.1,3.9-12.6c0-9.7-5.7-18.7-16-18.7c-2.1,0-7.7,0.5-12,5C23,359.3,22.5,365.2,22.4,367.2 M30.9,368.1
	c0.1-3.1,0.8-7.5,3.2-9.9c1.9-1.9,4.4-2.1,5.3-2.1c2.4,0,4,1.2,4.6,1.8c3,2.8,3,7.2,3.1,8.4c0.1,0.8,0.1,1.5,0.1,2.3
	c0,1.3,0.2,7.2-3.8,10.3c-0.8,0.5-2.1,1.5-4.5,1.5c-5.7,0-7.4-5.7-7.7-7.1C30.7,371.1,30.8,368.8,30.9,368.1"/>
<path class="st2" d="M63.2,350.2v36l2.9-0.2c1.6-0.1,3.4,0,5,0.1v-14.8c0.1-1.5-0.3-7.1,3.4-10.8c2-2,3.9-2.1,5-2.2
	c0.6-0.1,1.2-0.1,1.9-0.1l0.1-8.8c-1,0.1-3.2,0-5.5,1.4c-3.1,1.9-4.3,5-5.7,8.3v-8.9H63.2z"/>
<polygon class="st1" points="106.5,382.2 106.5,385.9 115.5,385.9 115.5,337.9 106.6,337.9 106.6,342.9 "/>
<path class="st2" d="M125.6,350.2v35.7l8.1,0.3v-19c0.2-3.7,0.5-7.1,3.7-9.5c1.7-1.4,3.3-1.6,4.1-1.6c1.9,0,3,0.8,3.6,1.3
	c2.1,1.9,2.1,4.4,2.2,7.2v21.7h7.7v-24.4c-0.1-0.4-0.1-2.4-0.5-4c-0.4-1.7-1-2.9-1.3-3.4c-0.7-1.2-1.6-2.3-2.6-3
	c-1-0.7-3.1-1.9-6.4-2c-5.7,0-8.3,3.5-9.4,5.3c-0.6,1-1.3,2.3-1.7,3.2v-7.7H125.6z"/>
<path class="st1" d="M160.4,350.2v6.7h4.3v19.9c0.3,2.8,0.6,5.1,2.7,7.2c2,2.1,4.7,2.5,7.7,2.5c1.7,0,3.3-0.1,5-0.2l0.1-6.6
	c-2.2,0.2-5,0.5-6.5-1.3c-0.6-0.8-0.9-1.5-1-3.4v-18h7.1v-6.7h-7.2V340l-6.5,0.5l-0.9,9.7H160.4z"/>
<path class="st2" d="M215.6,369.2c0-2.8-0.1-5.7-0.8-8.3c-0.3-0.9-0.8-2.8-2.3-4.9c-4.1-5.9-10.1-6.6-12.7-6.6
	c-7.4,0-13.1,4.5-15.3,11.4c-1,3.2-1,6.3-1,7.4c0,10,4,14.2,7.8,16.4c3.5,2,6.8,2.2,8.3,2.2c5.2,0,10.3-2.3,13.3-6.5
	c1.2-1.7,2.1-4.1,2.3-4.6l-7.4-1.2c-0.3,0.8-0.6,1.5-1,2.3c-1.5,2.2-4.1,3.6-6.7,3.6c-1,0-2.8-0.1-4.6-1.8c-3-2.6-3.2-6.1-3.3-7.4
	c-0.1-0.7-0.1-1.4-0.1-2L215.6,369.2z M191.8,364c0.2-1.9,0.3-2.4,0.8-3.4c1.1-3,3.2-4.3,4.3-4.8c0.4-0.2,1.5-0.7,2.8-0.7
	c0.8,0,2.4,0.1,4.2,1.5c2.6,1.9,3.1,4.3,3.6,7.4H191.8z"/>
<rect x="222.5" y="337.6" class="st1" width="8.4" height="48.5"/>
<rect x="239.5" y="337.6" class="st1" width="8.4" height="48.5"/>
<path class="st2" d="M256.3,386h8.2v-35.9h-8.2V386z M256.5,346.2h7.9v-8.6h-7.9V346.2z"/>
<path class="st2" d="M306.6,343.2c-4.7-0.1-6.6,0.2-8.3,1.5c-1.9,1.5-2.5,3.3-3.2,5.5c-2.6-0.6-4.1-0.9-6.8-0.9
	c-3.8,0-7.9,0.6-10.9,2.8c-2.6,1.9-4,4.8-4,8c0,5,3.6,7.4,4.9,8.3c-1.9,1.2-3.8,2.3-4.9,4.3c-0.3,0.4-0.8,1.5-0.8,2.8
	c0,2.6,1.5,4.2,3.1,6.1c-2.8,1.7-3.6,2.6-4.4,4.3c-0.6,1.3-0.6,2.3-0.6,3c0,4.4,3.3,6.6,4.5,7.2c1.4,0.8,2.5,1.1,3.1,1.2
	c1.7,0.4,5.2,1,9.7,1c6.7,0,10.4-1.2,13-2.7c4.8-2.7,5.5-6.4,5.5-8.8c0-3.7-2.4-6.8-5.7-8.3c-2.4-1-6-1.3-11.9-1.5
	c-3.7,0-5,0.1-6.9-0.6c-2.1-0.8-2.6-2.3-2.6-3.2c0-1.5,1-2.4,1.4-2.6c0.2-0.2,0.5-0.4,0.8-0.7c3.6,0.9,4.9,1,7,1
	c5.5,0,9.3-2.2,11-3.5c3.2-2.6,3.5-6,3.5-7.5c0-3-1.3-5-2-5.9c-0.8-0.8-1.3-1.2-2.2-1.9c0.3-0.7,0.7-1.2,1.3-1.7
	c1.5-1.3,4.4-1.2,6.5-1.1V343.2z M279.2,383.7c5.6,1,7.5,0.9,13.2,1c3.1,0.1,4.5,0.5,5.6,1.6c0.9,0.9,1,1.7,1,2.2
	c0,1.9-1.6,3.3-3.4,3.9c-2.1,0.8-5.4,0.8-5.9,0.8c-6.1,0-9.6-1.3-11.2-3.5c-0.3-0.3-0.9-1.4-0.9-2.8
	C277.7,385.4,278.2,384.7,279.2,383.7 M281.7,359.5c0.3-1.7,1.5-5.2,6.5-5.2c2.6,0,4.1,0.9,4.8,1.5c1.7,1.5,1.9,3.7,1.9,4.5
	c0,2.3-1.2,6-6.6,6c-3,0-5.5-1.4-6.3-4.1C281.5,361,281.6,360,281.7,359.5"/>
<path class="st2" d="M342.3,369.2c0-2.8-0.1-5.7-0.8-8.3c-0.3-0.9-0.8-2.8-2.3-4.9c-4.1-5.9-10.1-6.6-12.7-6.6
	c-7.4,0-13.1,4.5-15.3,11.4c-1,3.2-1,6.3-1,7.4c0,10,4,14.2,7.8,16.4c3.5,2,6.8,2.2,8.3,2.2c5.2,0,10.3-2.3,13.3-6.5
	c1.2-1.7,2.1-4.1,2.3-4.6l-7.4-1.2c-0.3,0.8-0.6,1.5-1,2.3c-1.5,2.2-4.1,3.6-6.7,3.6c-1,0-2.8-0.1-4.6-1.8c-3-2.6-3.2-6.1-3.3-7.4
	c-0.1-0.7-0.1-1.4-0.1-2L342.3,369.2z M318.5,364c0.2-1.9,0.3-2.4,0.8-3.4c1.1-3,3.2-4.3,4.3-4.8c0.4-0.2,1.5-0.7,2.8-0.7
	c0.8,0,2.4,0.1,4.2,1.5c2.6,1.9,3.1,4.3,3.6,7.4H318.5z"/>
<path class="st2" d="M349.3,350.2v35.7l8.1,0.3v-19c0.2-3.7,0.5-7.1,3.7-9.5c1.7-1.4,3.3-1.6,4.1-1.6c1.9,0,3,0.8,3.6,1.3
	c2.1,1.9,2.1,4.4,2.2,7.2v21.7h7.7v-24.4c-0.1-0.4-0.1-2.4-0.5-4c-0.4-1.7-1-2.9-1.3-3.4c-0.7-1.2-1.6-2.3-2.6-3
	c-1-0.7-3.1-1.9-6.4-2c-5.7,0-8.3,3.5-9.4,5.3c-0.6,1-1.3,2.3-1.7,3.2v-7.7H349.3z"/>
<path class="st1" d="M415.9,362c-0.1-0.7-0.6-3-1.7-5.1c-3.3-6.8-10.1-7.5-12.6-7.5c-7,0-10.7,4.1-12.2,6.2
	c-3.4,4.8-3.6,10.5-3.6,12.4c0,6.5,2.2,10.8,3.7,12.9c1,1.4,1.9,2.2,2.3,2.6c3.5,2.9,7.9,3.2,9.4,3.2c4.2,0,7-1.5,8.3-2.4
	c0.5-0.3,1.6-1.2,2.8-2.5c2.6-3.2,3.2-6.5,3.4-8l-6.4-0.6c-1,2.3-1.9,4.3-3.9,5.6c-1.4,0.9-2.7,1-3.5,1c-2.3,0-3.7-1-4.3-1.5
	c-2.6-2.1-3.3-6.3-3.3-9.6c0-4.8,0.8-7.4,1.9-9.2c1.9-2.8,4.3-3.2,5.7-3.2c1.3,0,4.3,0.4,5.9,3.7c0.5,1,0.8,2,1,3.1L415.9,362z"/>
<path class="st2" d="M452.2,369.2c0-2.8-0.1-5.7-0.7-8.3c-0.3-0.9-0.8-2.8-2.3-4.9c-4.1-5.9-10.1-6.6-12.7-6.6
	c-7.4,0-13.1,4.5-15.3,11.4c-1,3.2-1,6.3-1,7.4c0,10,4,14.2,7.8,16.4c3.4,2,6.8,2.2,8.3,2.2c5.3,0,10.3-2.3,13.3-6.5
	c1.2-1.7,2.1-4.1,2.3-4.6l-7.4-1.2c-0.3,0.8-0.5,1.5-1,2.3c-1.5,2.2-4.1,3.6-6.7,3.6c-1,0-2.8-0.1-4.6-1.8c-3-2.6-3.2-6.1-3.3-7.4
	c-0.1-0.7-0.1-1.4-0.1-2L452.2,369.2z M428.4,364c0.2-1.9,0.3-2.4,0.8-3.4c1.1-3,3.2-4.3,4.3-4.8c0.4-0.2,1.5-0.7,2.8-0.7
	c0.8,0,2.4,0.1,4.2,1.5c2.6,1.9,3.1,4.3,3.6,7.4H428.4z"/>
<rect x="459.6" y="376.8" class="st1" width="8.8" height="9.2"/>
</svg>
